<svg width="87" height="40" viewBox="0 0 87 40" fill="none" xmlns="http://www.w3.org/2000/svg">
<circle cx="20" cy="20" r="20" fill="#C6007E"/>
<path d="M13.7143 13.2812C13.3411 13.2812 13.0357 13.5766 13.0357 13.9375V27.0625C13.0357 27.4234 13.3411 27.7188 13.7143 27.7188H23.2143V24.4375C23.2143 23.7115 23.8208 23.125 24.5714 23.125H27.9643V13.9375C27.9643 13.5766 27.6589 13.2812 27.2857 13.2812H13.7143ZM23.2143 29.6875H13.7143C12.2172 29.6875 11 28.5104 11 27.0625V13.9375C11 12.4896 12.2172 11.3125 13.7143 11.3125H27.2857C28.7828 11.3125 30 12.4896 30 13.9375V23.125V23.3506C30 24.0479 29.7158 24.7164 29.2069 25.2086L25.3687 28.9205C24.8598 29.4127 24.1685 29.6875 23.4475 29.6875H23.2143Z" fill="white"/>
<circle cx="67" cy="20" r="20" fill="#C6007E"/>
<g clip-path="url(#clip0_9_587)">
<path d="M65.7629 12.1815L66.5714 12.0237V11.2V10.375C66.5714 10.2024 66.7257 10 67 10C67.2742 10 67.4286 10.2024 67.4286 10.375V11.2V12.0237L68.237 12.1815C71.0616 12.7327 73.1428 15.1252 73.1428 17.9375V18.7453C73.1428 21.0264 74.0138 23.2131 75.5724 24.9055L75.5744 24.9077L75.9048 25.2643L75.9055 25.2652C76.0081 25.3756 76.0255 25.5194 75.9699 25.6377C75.9081 25.7692 75.7595 25.875 75.5714 25.875H58.4286C58.2354 25.875 58.089 25.7654 58.0332 25.6444C57.9743 25.5165 57.9965 25.3707 58.0944 25.2652L58.0952 25.2643L58.4256 24.9077L58.4276 24.9055C59.9863 23.2129 60.8571 21.0218 60.8571 18.7453V17.9375C60.8571 15.1252 62.9384 12.7327 65.7629 12.1815ZM68.5269 29.25C68.4682 29.3298 68.4021 29.4055 68.3288 29.476C67.9849 29.807 67.508 30 67 30C66.4919 30 66.015 29.807 65.6711 29.476C65.5978 29.4055 65.5317 29.3298 65.4731 29.25H67H68.5269Z" stroke="white" stroke-width="2"/>
</g>
<defs>
<clipPath id="clip0_9_587">
<rect width="20" height="22" fill="white" transform="translate(57 9)"/>
</clipPath>
</defs>
</svg>
